PathFileType	4	(x/y/z)	S01_PSF_T17.trc
DataRate	CameraRate	NumFrames	NumMarkers	Units	OrigDataRate	OrigDataStartFrame	OrigNumFrames
240	240	8	51	mm	240	182	363
Frame#	Time	Sternum			R.Acromium			L.Acromium			Top.Head			R.ASIS			L.ASIS			R.PSIS			L.PSIS			R.Great.Tro			L.Great.Tro			R.Iliac.Crest			L.Iliac.Crest			V.Sacral			R.Thigh.Upper.Post			R.Thigh.Lower.Ant			R.Thigh.Lower.Post			R.Thigh.Upper.Ant			R.Knee.Lat			R.Knee.Med			R.Shank.Upper.Post			R.Shank.Lower.Ant			R.Shank.Lower.Post			R.Shank.Upper.Ant			R.Ankle.Lat			R.Ankle.Med			R.Heel.Upper			R.Heel.Med			R.Heel.Lat			R.Toe.Lat			R.Toe.Med			R.Toe.Tip			L.Thigh.Upper.Post			L.Thigh.Lower.Ant			L.Thigh.Lower.Post			L.Thigh.Upper.Ant			L.Knee.Lat			L.Knee.Med			L.Shank.Upper.Post			L.Shank.Lower.Ant			L.Shank.Lower.Post			L.Shank.Upper.Ant			L.Ankle.Lat			L.Ankle.Med			L.Heel.Upper			L.Heel.Med			L.Heel.Lat			L.Toe.Lat			L.Toe.Med			L.Toe.Tip			Cervical.Spine			Back			
		X1	Y1	Z1	X2	Y2	Z2	X3	Y3	Z3	X4	Y4	Z4	X5	Y5	Z5	X6	Y6	Z6	X7	Y7	Z7	X8	Y8	Z8	X9	Y9	Z9	X10	Y10	Z10	X11	Y11	Z11	X12	Y12	Z12	X13	Y13	Z13	X14	Y14	Z14	X15	Y15	Z15	X16	Y16	Z16	X17	Y17	Z17	X18	Y18	Z18	X19	Y19	Z19	X20	Y20	Z20	X21	Y21	Z21	X22	Y22	Z22	X23	Y23	Z23	X24	Y24	Z24	X25	Y25	Z25	X26	Y26	Z26	X27	Y27	Z27	X28	Y28	Z28	X29	Y29	Z29	X30	Y30	Z30	X31	Y31	Z31	X32	Y32	Z32	X33	Y33	Z33	X34	Y34	Z34	X35	Y35	Z35	X36	Y36	Z36	X37	Y37	Z37	X38	Y38	Z38	X39	Y39	Z39	X40	Y40	Z40	X41	Y41	Z41	X42	Y42	Z42	X43	Y43	Z43	X44	Y44	Z44	X45	Y45	Z45	X46	Y46	Z46	X47	Y47	Z47	X48	Y48	Z48	X49	Y49	Z49	X50	Y50	Z50	X51	Y51	Z51	

182	0.75417	-247.38	1280.3	289.36	-340.53	1524	486.03	-398.21	1551.7	162.07	-345.28	1852.4	325.62	-285.89	1028.8	446.06	-298.21	1036.1	179.65	-530.76	1062.8	356.96	-536.4	1057.2	254.48	-367.92	975	524.19	-399.62	978.23	101.31	-375.79	1120.5	515.19	-415.29	1115.9	112.78	-545.58	1023.2	304.6	-424.24	673.87	487.7	-366.33	596.43	453.14	-434.19	587.9	465.4	-352.09	683.11	476.95	-430.42	519.5	456.22	-427.77	528.98	310.79	-519.28	373.06	471.54	-475.92	282.45	425.04	-536.86	305.42	456.91	-461.52	352.06	445.7	-572.7	104.47	410.45	-542.28	111.49	317.92	-646.05	76.694	350.52	-629.72	46.816	322.23	-634.78	47.226	386.75	-444.73	34.621	447.25	-412.17	40.678	322.81	-348.68	55.437	378.63	-321.84	696.55	113.7	-217.88	661.65	100.18	-277.3	617.8	128.63	-270.81	740.3	86.92	-199.42	560.25	110.01	-159.48	566.99	252.4	-218.16	416.14	94.993	-133.35	345.51	108.69	-196.92	340.84	96.837	-153.66	419.35	102.77	-144.66	127.23	123.8	-108.27	147.94	217.14	-199.65	80.635	181.57	-177.75	61.422	213.3	-188.18	57.09	151.35	9.1517	90.412	89.205	47.325	113.58	204.45	97.528	137.16	143.76	-451.31	1593.7	341.95	-542.81	1284.8	349.93
183	0.75833	-242.21	1278.9	289.14	-335.4	1522.7	485.64	-392.6	1550.3	161.63	-339.98	1851.2	325.22	-280.56	1027.9	445.78	-292.92	1034.8	179.29	-525.53	1061.6	356.71	-531.16	1055.7	254.27	-362.75	974.27	524.05	-394.4	976.73	101.14	-370.61	1119.4	514.92	-410.17	1114.3	112.43	-540.32	1021.9	304.43	-420.87	673.53	487.64	-363.49	595.79	452.97	-431.31	587.61	465.41	-348.75	682.39	476.72	-428.23	519.09	456.28	-425.45	528.65	310.7	-517.89	373.08	471.56	-474.94	282.25	425.11	-535.79	305.53	456.92	-460.22	351.8	445.77	-572.53	104.57	410.41	-542.03	111.51	317.89	-645.92	76.876	350.46	-629.64	46.977	322.18	-634.7	47.394	386.7	-444.74	34.571	447.33	-412.07	40.639	322.86	-348.6	55.224	378.7	-317.24	694.89	114.03	-213.3	659.86	100.61	-272.78	616.11	129.15	-266.15	738.52	87.168	-194.25	558.79	110.75	-155.42	565.24	253.67	-210.16	414.44	95.139	-124.07	345.34	109.06	-187.52	339.51	96.863	-145.73	418.84	103.27	-130.89	126.53	123.42	-95.618	147.72	217.04	-185.33	78.536	180.64	-163.25	59.659	212.44	-173.14	55.364	150.36	24.005	93.072	89.758	60.803	116.69	205.37	110.99	141.51	145.11	-446.06	1592.5	341.47	-537.66	1283.6	349.32
184	0.7625	-237.02	1277.5	288.9	-330.25	1521.3	485.21	-386.96	1548.9	161.16	-334.67	1849.9	324.79	-275.21	1026.9	445.48	-287.61	1033.5	178.91	-520.29	1060.4	356.47	-525.9	1054.3	254.06	-357.54	973.5	523.91	-389.13	975.22	100.96	-365.43	1118.3	514.66	-405.06	1112.7	112.07	-535.03	1020.5	304.27	-417.44	673.17	487.57	-360.56	595.11	452.82	-428.36	587.29	465.42	-345.34	681.65	476.5	-425.93	518.65	456.33	-423.04	528.28	310.61	-516.43	373.1	471.58	-473.9	282.03	425.17	-534.66	305.64	456.92	-458.84	351.52	445.83	-572.34	104.68	410.37	-541.77	111.55	317.86	-645.78	77.083	350.4	-629.55	47.163	322.13	-634.62	47.583	386.65	-444.75	34.526	447.42	-411.96	40.602	322.92	-348.52	55.003	378.76	-312.53	693.26	114.31	-208.6	658.11	101.03	-268.15	614.44	129.62	-261.38	736.77	87.381	-189	557.35	111.46	-151.34	563.49	254.9	-202.23	412.81	95.29	-114.96	345.18	109.46	-178.28	338.24	96.912	-137.89	418.33	103.77	-117.51	125.93	123.14	-83.338	147.57	217.03	-171.44	76.618	179.81	-149.18	58.064	211.69	-158.54	53.811	149.49	38.376	95.7	90.44	73.802	119.73	206.42	123.98	145.74	146.58	-440.8	1591.3	340.96	-532.5	1282.3	348.72
185	0.76667	-231.82	1276	288.63	-325.1	1519.9	484.76	-381.31	1547.5	160.67	-329.36	1848.6	324.34	-269.83	1025.8	445.18	-282.28	1032.2	178.53	-515.03	1059.1	356.22	-520.63	1052.8	253.86	-352.3	972.71	523.76	-383.84	973.69	100.77	-360.23	1117.2	514.4	-399.94	1111.1	111.69	-529.72	1019.1	304.12	-413.94	672.76	487.5	-357.55	594.4	452.69	-425.33	586.94	465.41	-341.87	680.88	476.29	-423.54	518.19	456.37	-420.51	527.88	310.5	-514.87	373.12	471.59	-472.79	281.79	425.23	-533.46	305.75	456.91	-457.39	351.22	445.89	-572.14	104.81	410.34	-541.5	111.6	317.83	-645.62	77.316	350.35	-629.46	47.375	322.08	-634.53	47.794	386.59	-444.75	34.489	447.51	-411.86	40.569	322.97	-348.44	54.773	378.83	-307.7	691.65	114.53	-203.77	656.41	101.44	-263.4	612.81	130.03	-256.48	735.06	87.563	-183.68	555.94	112.12	-147.23	561.76	256.11	-194.39	411.23	95.45	-106.03	345	109.89	-169.2	337.03	96.989	-130.15	417.81	104.27	-104.54	125.41	122.97	-71.451	147.47	217.11	-157.99	74.864	179.1	-135.57	56.621	211.07	-144.41	52.41	148.75	52.239	98.258	91.246	86.311	122.68	207.58	136.49	149.81	148.15	-435.55	1590.1	340.43	-527.34	1281.1	348.11
186	0.77083	-226.6	1274.6	288.35	-319.94	1518.5	484.28	-375.64	1546.1	160.16	-324.05	1847.3	323.87	-264.44	1024.8	444.88	-276.93	1030.9	178.13	-509.75	1057.8	355.97	-515.33	1051.2	253.66	-347.03	971.9	523.61	-378.5	972.15	100.57	-355.01	1116	514.14	-394.82	1109.4	111.3	-524.37	1017.7	303.97	-410.37	672.33	487.42	-354.44	593.67	452.56	-422.21	586.55	465.4	-338.33	680.09	476.08	-421.03	517.71	456.4	-417.87	527.45	310.37	-513.23	373.13	471.59	-471.61	281.55	425.28	-532.18	305.86	456.9	-455.85	350.9	445.93	-571.92	104.96	410.31	-541.21	111.66	317.8	-645.46	77.58	350.29	-629.35	47.616	322.03	-634.43	48.032	386.54	-444.75	34.458	447.62	-411.74	40.539	323.02	-348.35	54.534	378.89	-302.74	690.08	114.7	-198.81	654.76	101.84	-258.51	611.22	130.39	-251.46	733.4	87.72	-178.28	554.56	112.76	-143.05	560.06	257.27	-186.65	409.7	95.625	-97.283	344.81	110.36	-160.31	335.87	97.1	-122.51	417.29	104.79	-92.019	124.96	122.9	-59.972	147.39	217.28	-145.01	73.258	178.53	-122.45	55.312	210.59	-130.78	51.143	148.16	65.573	100.71	92.171	98.32	125.5	208.83	148.49	153.67	149.81	-430.3	1588.8	339.88	-522.17	1279.8	347.5
187	0.775	-221.37	1273.1	288.03	-314.76	1517.1	483.78	-369.96	1544.6	159.62	-318.72	1846	323.37	-259.03	1023.7	444.58	-271.55	1029.5	177.73	-504.45	1056.5	355.72	-510	1049.6	253.45	-341.73	971.05	523.45	-373.12	970.61	100.35	-349.79	1114.9	513.88	-389.7	1107.7	110.91	-519	1016.2	303.81	-406.73	671.86	487.33	-351.24	592.9	452.46	-419	586.13	465.36	-334.71	679.27	475.89	-418.42	517.2	456.41	-415.11	526.99	310.22	-511.49	373.13	471.58	-470.35	281.28	425.31	-530.82	305.97	456.88	-454.22	350.56	445.95	-571.68	105.12	410.27	-540.9	111.75	317.77	-645.28	77.877	350.24	-629.24	47.889	321.98	-634.32	48.298	386.48	-444.75	34.431	447.72	-411.63	40.514	323.06	-348.26	54.287	378.95	-297.64	688.56	114.82	-193.69	653.19	102.24	-253.48	609.67	130.7	-246.28	731.79	87.856	-172.79	553.2	113.36	-138.81	558.4	258.38	-179	408.23	95.817	-88.734	344.58	110.86	-151.6	334.76	97.249	-114.98	416.74	105.31	-79.96	124.55	122.96	-48.917	147.31	217.55	-132.51	71.784	178.08	-109.85	54.118	210.25	-117.67	49.988	147.72	78.357	103.01	93.207	109.82	128.16	210.19	159.99	157.29	151.55	-425.05	1587.5	339.3	-517	1278.5	346.89
188	0.77917	-216.11	1271.7	287.7	-309.58	1515.6	483.24	-364.27	1543.1	159.05	-313.4	1844.7	322.85	-253.6	1022.7	444.29	-266.16	1028.2	177.33	-499.12	1055.1	355.47	-504.66	1048	253.24	-336.4	970.18	523.28	-367.7	969.07	100.12	-344.55	1113.7	513.62	-384.56	1106	110.51	-513.6	1014.7	303.66	-403.02	671.35	487.23	-347.93	592.11	452.36	-415.7	585.67	465.32	-331.02	678.43	475.72	-415.68	516.66	456.41	-412.22	526.49	310.05	-509.65	373.13	471.56	-469.01	281	425.34	-529.37	306.07	456.85	-452.5	350.2	445.96	-571.41	105.31	410.24	-540.56	111.86	317.75	-645.09	78.211	350.19	-629.12	48.198	321.93	-634.2	48.597	386.43	-444.75	34.409	447.83	-411.5	40.493	323.11	-348.16	54.03	379.01	-292.39	687.08	114.88	-188.42	651.68	102.64	-248.3	608.18	130.96	-240.96	730.25	87.979	-167.2	551.88	113.92	-134.48	556.79	259.43	-171.46	406.8	96.032	-80.383	344.31	111.4	-143.09	333.67	97.441	-107.55	416.16	105.84	-68.385	124.15	123.12	-38.299	147.21	217.92	-120.54	70.424	177.78	-97.791	53.024	210.06	-105.13	48.928	147.43	90.574	105.14	94.347	120.8	130.61	211.62	170.98	160.63	153.36	-419.8	1586.2	338.7	-511.82	1277.2	346.28
189	0.78333	-210.84	1270.2	287.33	-304.39	1514.2	482.68	-358.57	1541.6	158.47	-308.08	1843.4	322.31	-248.15	1021.6	443.99	-260.74	1026.9	176.92	-493.77	1053.7	355.2	-499.28	1046.4	253.03	-331.05	969.28	523.1	-362.24	967.54	99.876	-339.29	1112.5	513.36	-379.42	1104.2	110.1	-508.16	1013.2	303.49	-399.24	670.81	487.11	-344.52	591.28	452.29	-412.31	585.18	465.25	-327.24	677.56	475.55	-412.82	516.09	456.4	-409.19	525.94	309.87	-507.7	373.12	471.53	-467.6	280.7	425.36	-527.83	306.17	456.81	-450.68	349.81	445.96	-571.13	105.52	410.22	-540.21	112	317.72	-644.88	78.585	350.15	-628.99	48.547	321.88	-634.08	48.931	386.37	-444.74	34.389	447.94	-411.37	40.477	323.15	-348.05	53.766	379.07	-286.99	685.66	114.9	-182.98	650.25	103.06	-242.96	606.74	131.17	-235.48	728.77	88.095	-161.53	550.6	114.46	-130.06	555.24	260.42	-164.02	405.41	96.273	-72.232	343.98	111.97	-134.78	332.61	97.679	-100.23	415.54	106.38	-57.312	123.76	123.41	-28.133	147.09	218.38	-109.09	69.165	177.62	-86.294	52.012	210.02	-93.167	47.944	147.3	102.21	107.05	95.582	131.26	132.82	213.13	181.46	163.64	155.22	-414.55	1584.9	338.07	-506.64	1275.9	345.67
